# Wavefront OBJ file automatically generated by Tiled2Unity

# Vertices (Count = 285)
v -448 -32 0
v -480 -32 0
v -480 0 0
v -448 0 0
v -416 -32 0
v -416 0 0
v -384 -32 0
v -384 0 0
v -352 -32 0
v -352 0 0
v -320 -32 0
v -320 0 0
v -288 -32 0
v -288 0 0
v -256 -32 0
v -256 0 0
v -224 -32 0
v -224 0 0
v -192 -32 0
v -192 0 0
v -160 -32 0
v -160 0 0
v -128 -32 0
v -128 0 0
v -96 -32 0
v -96 0 0
v -64 -32 0
v -64 0 0
v -32 -32 0
v -32 0 0
v 0 -32 0
v 0 0 0
v -448 -64 0
v -480 -64 0
v -416 -64 0
v -384 -64 0
v -352 -64 0
v -320 -64 0
v -288 -64 0
v -256 -64 0
v -224 -64 0
v -192 -64 0
v -160 -64 0
v -128 -64 0
v -96 -64 0
v -64 -64 0
v -32 -64 0
v 0 -64 0
v -448 -96 0
v -480 -96 0
v -416 -96 0
v -384 -96 0
v -352 -96 0
v -320 -96 0
v -288 -96 0
v -256 -96 0
v -224 -96 0
v -192 -96 0
v -160 -96 0
v -128 -96 0
v -96 -96 0
v -64 -96 0
v -32 -96 0
v 0 -96 0
v -448 -128 0
v -480 -128 0
v -416 -128 0
v -384 -128 0
v -352 -128 0
v -320 -128 0
v -288 -128 0
v -256 -128 0
v -224 -128 0
v -192 -128 0
v -160 -128 0
v -128 -128 0
v -96 -128 0
v -64 -128 0
v -32 -128 0
v 0 -128 0
v -448 -160 0
v -480 -160 0
v -416 -160 0
v -384 -160 0
v -352 -160 0
v -320 -160 0
v -288 -160 0
v -256 -160 0
v -224 -160 0
v -192 -160 0
v -160 -160 0
v -128 -160 0
v -96 -160 0
v -64 -160 0
v -32 -160 0
v 0 -160 0
v -448 -192 0
v -480 -192 0
v -416 -192 0
v -384 -192 0
v -352 -192 0
v -320 -192 0
v -288 -192 0
v -256 -192 0
v -224 -192 0
v -192 -192 0
v -160 -192 0
v -128 -192 0
v -96 -192 0
v -64 -192 0
v -32 -192 0
v 0 -192 0
v -448 -224 0
v -480 -224 0
v -416 -224 0
v -384 -224 0
v -352 -224 0
v -320 -224 0
v -288 -224 0
v -256 -224 0
v -224 -224 0
v -192 -224 0
v -160 -224 0
v -128 -224 0
v -96 -224 0
v -64 -224 0
v -32 -224 0
v 0 -224 0
v -448 -256 0
v -480 -256 0
v -416 -256 0
v -384 -256 0
v -352 -256 0
v -320 -256 0
v -288 -256 0
v -256 -256 0
v -224 -256 0
v -192 -256 0
v -160 -256 0
v -128 -256 0
v -96 -256 0
v -64 -256 0
v -32 -256 0
v 0 -256 0
v -448 -288 0
v -480 -288 0
v -416 -288 0
v -384 -288 0
v -352 -288 0
v -320 -288 0
v -288 -288 0
v -256 -288 0
v -224 -288 0
v -192 -288 0
v -160 -288 0
v -128 -288 0
v -96 -288 0
v -64 -288 0
v -32 -288 0
v 0 -288 0
v -448 -320 0
v -480 -320 0
v -416 -320 0
v -384 -320 0
v -352 -320 0
v -320 -320 0
v -288 -320 0
v -256 -320 0
v -224 -320 0
v -192 -320 0
v -160 -320 0
v -128 -320 0
v -96 -320 0
v -64 -320 0
v -32 -320 0
v -448 -352 0
v -480 -352 0
v -416 -352 0
v -384 -352 0
v -352 -352 0
v -320 -352 0
v -288 -352 0
v -256 -352 0
v -224 -352 0
v -192 -352 0
v -160 -352 0
v -128 -352 0
v -96 -352 0
v -64 -352 0
v -32 -352 0
v -448 -384 0
v -480 -384 0
v -416 -384 0
v -384 -384 0
v -352 -384 0
v -320 -384 0
v -288 -384 0
v -256 -384 0
v -224 -384 0
v -192 -384 0
v -160 -384 0
v -128 -384 0
v -96 -384 0
v -64 -384 0
v -32 -384 0
v 0 -384 0
v 0 -352 0
v -448 -416 0
v -480 -416 0
v -416 -416 0
v -384 -416 0
v -352 -416 0
v -320 -416 0
v -288 -416 0
v -256 -416 0
v -224 -416 0
v -192 -416 0
v -160 -416 0
v -128 -416 0
v -96 -416 0
v -64 -416 0
v -32 -416 0
v -416 -448 0
v -448 -448 0
v -384 -448 0
v -352 -448 0
v -320 -448 0
v -288 -448 0
v -256 -448 0
v -224 -448 0
v -192 -448 0
v -160 -448 0
v -128 -448 0
v -96 -448 0
v -64 -448 0
v -32 -448 0
v -416 -480 0
v -448 -480 0
v -384 -480 0
v -352 -480 0
v -320 -480 0
v -288 -480 0
v -256 -480 0
v -224 -480 0
v -192 -480 0
v -160 -480 0
v -128 -480 0
v -96 -480 0
v -64 -480 0
v -32 -480 0
v 0 -480 0
v 0 -448 0
v -448 -512 0
v -480 -512 0
v -480 -480 0
v -416 -512 0
v -384 -512 0
v -352 -512 0
v -320 -512 0
v -288 -512 0
v -256 -512 0
v -224 -512 0
v -192 -512 0
v -160 -512 0
v -128 -512 0
v -96 -512 0
v -64 -512 0
v -32 -512 0
v 0 -512 0
v -448 -544 0
v -480 -544 0
v -416 -544 0
v -384 -544 0
v -352 -544 0
v -320 -544 0
v -288 -544 0
v -256 -544 0
v -224 -544 0
v -192 -544 0
v -160 -544 0
v -128 -544 0
v -96 -544 0
v -64 -544 0
v -32 -544 0
v 0 -544 0

# Texture cooridinates (Count = 72)
vt 0.4214896 0.5817528
vt 0.4380145 0.5817528
vt 0.4380145 0.6121635
vt 0.4214896 0.6121635
vt 0.3688037 0.5817528
vt 0.3853286 0.5817528
vt 0.3853286 0.6121635
vt 0.3688037 0.6121635
vt 0.4039276 0.5817528
vt 0.4204525 0.5817528
vt 0.4204525 0.6121635
vt 0.4039276 0.6121635
vt 0.3863657 0.5494334
vt 0.4028905 0.5494334
vt 0.4028905 0.5798442
vt 0.3863657 0.5798442
vt 0.4390516 0.4847946
vt 0.4555765 0.4847946
vt 0.4555765 0.5152054
vt 0.4390516 0.5152054
vt 0.2107458 0.355517
vt 0.2272707 0.355517
vt 0.2272707 0.3859279
vt 0.2107458 0.3859279
vt 0.1931838 0.355517
vt 0.2097087 0.355517
vt 0.2097087 0.3859279
vt 0.1931838 0.3859279
vt 0.1756219 0.355517
vt 0.1921467 0.355517
vt 0.1921467 0.3859279
vt 0.1756219 0.3859279
vt 0.2107458 0.3231976
vt 0.2272707 0.3231976
vt 0.2272707 0.3536084
vt 0.2107458 0.3536084
vt 0.1931838 0.3231976
vt 0.2097087 0.3231976
vt 0.2097087 0.3536084
vt 0.1931838 0.3536084
vt 0.1756219 0.3231976
vt 0.1921467 0.3231976
vt 0.1921467 0.3536084
vt 0.1756219 0.3536084
vt 0.2107458 0.2908782
vt 0.2272707 0.2908782
vt 0.2272707 0.3212891
vt 0.2107458 0.3212891
vt 0.1931838 0.2908782
vt 0.2097087 0.2908782
vt 0.2097087 0.3212891
vt 0.1931838 0.3212891
vt 0.1756219 0.2908782
vt 0.1921467 0.2908782
vt 0.1921467 0.3212891
vt 0.1756219 0.3212891
vt 0.4214896 0.5494334
vt 0.4380145 0.5494334
vt 0.4380145 0.5798442
vt 0.4214896 0.5798442
vt 0.4039276 0.5494334
vt 0.4204525 0.5494334
vt 0.4204525 0.5798442
vt 0.4039276 0.5798442
vt 0.1931838 0.2262394
vt 0.2097087 0.2262394
vt 0.2097087 0.2566503
vt 0.1931838 0.2566503
vt 0.8429772 0.03232312
vt 0.8595021 0.03232312
vt 0.8595021 0.06273395
vt 0.8429772 0.06273395

# Normal
vn 0 0 -1

# Groups (Count = 2)

g mesh_0001
f 1/1/1 2/2/1 3/3/1 4/4/1
f 5/5/1 1/6/1 4/7/1 6/8/1
f 7/5/1 5/6/1 6/7/1 8/8/1
f 9/5/1 7/6/1 8/7/1 10/8/1
f 11/5/1 9/6/1 10/7/1 12/8/1
f 13/5/1 11/6/1 12/7/1 14/8/1
f 15/5/1 13/6/1 14/7/1 16/8/1
f 17/5/1 15/6/1 16/7/1 18/8/1
f 19/5/1 17/6/1 18/7/1 20/8/1
f 21/5/1 19/6/1 20/7/1 22/8/1
f 23/5/1 21/6/1 22/7/1 24/8/1
f 25/5/1 23/6/1 24/7/1 26/8/1
f 27/5/1 25/6/1 26/7/1 28/8/1
f 29/5/1 27/6/1 28/7/1 30/8/1
f 31/9/1 29/10/1 30/11/1 32/12/1
f 33/13/1 34/14/1 2/15/1 1/16/1
f 35/17/1 33/18/1 1/19/1 5/20/1
f 36/17/1 35/18/1 5/19/1 7/20/1
f 37/17/1 36/18/1 7/19/1 9/20/1
f 38/17/1 37/18/1 9/19/1 11/20/1
f 39/17/1 38/18/1 11/19/1 13/20/1
f 40/17/1 39/18/1 13/19/1 15/20/1
f 41/17/1 40/18/1 15/19/1 17/20/1
f 42/17/1 41/18/1 17/19/1 19/20/1
f 43/17/1 42/18/1 19/19/1 21/20/1
f 44/17/1 43/18/1 21/19/1 23/20/1
f 45/17/1 44/18/1 23/19/1 25/20/1
f 46/17/1 45/18/1 25/19/1 27/20/1
f 47/17/1 46/18/1 27/19/1 29/20/1
f 48/13/1 47/14/1 29/15/1 31/16/1
f 49/13/1 50/14/1 34/15/1 33/16/1
f 51/17/1 49/18/1 33/19/1 35/20/1
f 52/17/1 51/18/1 35/19/1 36/20/1
f 53/17/1 52/18/1 36/19/1 37/20/1
f 54/17/1 53/18/1 37/19/1 38/20/1
f 55/17/1 54/18/1 38/19/1 39/20/1
f 56/17/1 55/18/1 39/19/1 40/20/1
f 57/17/1 56/18/1 40/19/1 41/20/1
f 58/17/1 57/18/1 41/19/1 42/20/1
f 59/17/1 58/18/1 42/19/1 43/20/1
f 60/17/1 59/18/1 43/19/1 44/20/1
f 61/17/1 60/18/1 44/19/1 45/20/1
f 62/17/1 61/18/1 45/19/1 46/20/1
f 63/17/1 62/18/1 46/19/1 47/20/1
f 64/13/1 63/14/1 47/15/1 48/16/1
f 65/13/1 66/14/1 50/15/1 49/16/1
f 67/17/1 65/18/1 49/19/1 51/20/1
f 68/17/1 67/18/1 51/19/1 52/20/1
f 69/17/1 68/18/1 52/19/1 53/20/1
f 70/17/1 69/18/1 53/19/1 54/20/1
f 71/17/1 70/18/1 54/19/1 55/20/1
f 72/17/1 71/18/1 55/19/1 56/20/1
f 73/17/1 72/18/1 56/19/1 57/20/1
f 74/17/1 73/18/1 57/19/1 58/20/1
f 75/17/1 74/18/1 58/19/1 59/20/1
f 76/17/1 75/18/1 59/19/1 60/20/1
f 77/17/1 76/18/1 60/19/1 61/20/1
f 78/17/1 77/18/1 61/19/1 62/20/1
f 79/17/1 78/18/1 62/19/1 63/20/1
f 80/13/1 79/14/1 63/15/1 64/16/1
f 81/13/1 82/14/1 66/15/1 65/16/1
f 83/21/1 81/22/1 65/23/1 67/24/1
f 84/25/1 83/26/1 67/27/1 68/28/1
f 85/25/1 84/26/1 68/27/1 69/28/1
f 86/25/1 85/26/1 69/27/1 70/28/1
f 87/25/1 86/26/1 70/27/1 71/28/1
f 88/25/1 87/26/1 71/27/1 72/28/1
f 89/25/1 88/26/1 72/27/1 73/28/1
f 90/25/1 89/26/1 73/27/1 74/28/1
f 91/25/1 90/26/1 74/27/1 75/28/1
f 92/25/1 91/26/1 75/27/1 76/28/1
f 93/25/1 92/26/1 76/27/1 77/28/1
f 94/25/1 93/26/1 77/27/1 78/28/1
f 95/29/1 94/30/1 78/31/1 79/32/1
f 96/13/1 95/14/1 79/15/1 80/16/1
f 97/13/1 98/14/1 82/15/1 81/16/1
f 99/33/1 97/34/1 81/35/1 83/36/1
f 100/37/1 99/38/1 83/39/1 84/40/1
f 101/37/1 100/38/1 84/39/1 85/40/1
f 102/37/1 101/38/1 85/39/1 86/40/1
f 103/37/1 102/38/1 86/39/1 87/40/1
f 104/37/1 103/38/1 87/39/1 88/40/1
f 105/37/1 104/38/1 88/39/1 89/40/1
f 106/37/1 105/38/1 89/39/1 90/40/1
f 107/37/1 106/38/1 90/39/1 91/40/1
f 108/37/1 107/38/1 91/39/1 92/40/1
f 109/37/1 108/38/1 92/39/1 93/40/1
f 110/37/1 109/38/1 93/39/1 94/40/1
f 111/41/1 110/42/1 94/43/1 95/44/1
f 112/13/1 111/14/1 95/15/1 96/16/1
f 113/13/1 114/14/1 98/15/1 97/16/1
f 115/33/1 113/34/1 97/35/1 99/36/1
f 116/37/1 115/38/1 99/39/1 100/40/1
f 117/37/1 116/38/1 100/39/1 101/40/1
f 118/37/1 117/38/1 101/39/1 102/40/1
f 119/37/1 118/38/1 102/39/1 103/40/1
f 120/37/1 119/38/1 103/39/1 104/40/1
f 121/37/1 120/38/1 104/39/1 105/40/1
f 122/37/1 121/38/1 105/39/1 106/40/1
f 123/37/1 122/38/1 106/39/1 107/40/1
f 124/37/1 123/38/1 107/39/1 108/40/1
f 125/37/1 124/38/1 108/39/1 109/40/1
f 126/37/1 125/38/1 109/39/1 110/40/1
f 127/41/1 126/42/1 110/43/1 111/44/1
f 128/13/1 127/14/1 111/15/1 112/16/1
f 129/13/1 130/14/1 114/15/1 113/16/1
f 131/33/1 129/34/1 113/35/1 115/36/1
f 132/37/1 131/38/1 115/39/1 116/40/1
f 133/37/1 132/38/1 116/39/1 117/40/1
f 134/37/1 133/38/1 117/39/1 118/40/1
f 135/37/1 134/38/1 118/39/1 119/40/1
f 136/37/1 135/38/1 119/39/1 120/40/1
f 137/37/1 136/38/1 120/39/1 121/40/1
f 138/37/1 137/38/1 121/39/1 122/40/1
f 139/37/1 138/38/1 122/39/1 123/40/1
f 140/37/1 139/38/1 123/39/1 124/40/1
f 141/37/1 140/38/1 124/39/1 125/40/1
f 142/37/1 141/38/1 125/39/1 126/40/1
f 143/41/1 142/42/1 126/43/1 127/44/1
f 144/13/1 143/14/1 127/15/1 128/16/1
f 145/13/1 146/14/1 130/15/1 129/16/1
f 147/33/1 145/34/1 129/35/1 131/36/1
f 148/37/1 147/38/1 131/39/1 132/40/1
f 149/37/1 148/38/1 132/39/1 133/40/1
f 150/37/1 149/38/1 133/39/1 134/40/1
f 151/37/1 150/38/1 134/39/1 135/40/1
f 152/37/1 151/38/1 135/39/1 136/40/1
f 153/37/1 152/38/1 136/39/1 137/40/1
f 154/37/1 153/38/1 137/39/1 138/40/1
f 155/37/1 154/38/1 138/39/1 139/40/1
f 156/37/1 155/38/1 139/39/1 140/40/1
f 157/37/1 156/38/1 140/39/1 141/40/1
f 158/37/1 157/38/1 141/39/1 142/40/1
f 159/41/1 158/42/1 142/43/1 143/44/1
f 160/13/1 159/14/1 143/15/1 144/16/1
f 161/13/1 162/14/1 146/15/1 145/16/1
f 163/33/1 161/34/1 145/35/1 147/36/1
f 164/37/1 163/38/1 147/39/1 148/40/1
f 165/37/1 164/38/1 148/39/1 149/40/1
f 166/37/1 165/38/1 149/39/1 150/40/1
f 167/37/1 166/38/1 150/39/1 151/40/1
f 168/37/1 167/38/1 151/39/1 152/40/1
f 169/37/1 168/38/1 152/39/1 153/40/1
f 170/37/1 169/38/1 153/39/1 154/40/1
f 171/37/1 170/38/1 154/39/1 155/40/1
f 172/37/1 171/38/1 155/39/1 156/40/1
f 173/37/1 172/38/1 156/39/1 157/40/1
f 174/37/1 173/38/1 157/39/1 158/40/1
f 175/41/1 174/42/1 158/43/1 159/44/1
f 176/13/1 177/14/1 162/15/1 161/16/1
f 178/33/1 176/34/1 161/35/1 163/36/1
f 179/37/1 178/38/1 163/39/1 164/40/1
f 180/37/1 179/38/1 164/39/1 165/40/1
f 181/37/1 180/38/1 165/39/1 166/40/1
f 182/37/1 181/38/1 166/39/1 167/40/1
f 183/37/1 182/38/1 167/39/1 168/40/1
f 184/37/1 183/38/1 168/39/1 169/40/1
f 185/37/1 184/38/1 169/39/1 170/40/1
f 186/37/1 185/38/1 170/39/1 171/40/1
f 187/37/1 186/38/1 171/39/1 172/40/1
f 188/37/1 187/38/1 172/39/1 173/40/1
f 189/37/1 188/38/1 173/39/1 174/40/1
f 190/41/1 189/42/1 174/43/1 175/44/1
f 191/13/1 192/14/1 177/15/1 176/16/1
f 193/33/1 191/34/1 176/35/1 178/36/1
f 194/37/1 193/38/1 178/39/1 179/40/1
f 195/37/1 194/38/1 179/39/1 180/40/1
f 196/37/1 195/38/1 180/39/1 181/40/1
f 197/37/1 196/38/1 181/39/1 182/40/1
f 198/37/1 197/38/1 182/39/1 183/40/1
f 199/37/1 198/38/1 183/39/1 184/40/1
f 200/37/1 199/38/1 184/39/1 185/40/1
f 201/37/1 200/38/1 185/39/1 186/40/1
f 202/37/1 201/38/1 186/39/1 187/40/1
f 203/37/1 202/38/1 187/39/1 188/40/1
f 204/37/1 203/38/1 188/39/1 189/40/1
f 205/41/1 204/42/1 189/43/1 190/44/1
f 206/13/1 205/14/1 190/15/1 207/16/1
f 208/13/1 209/14/1 192/15/1 191/16/1
f 210/33/1 208/34/1 191/35/1 193/36/1
f 211/37/1 210/38/1 193/39/1 194/40/1
f 212/37/1 211/38/1 194/39/1 195/40/1
f 213/37/1 212/38/1 195/39/1 196/40/1
f 214/37/1 213/38/1 196/39/1 197/40/1
f 215/37/1 214/38/1 197/39/1 198/40/1
f 216/37/1 215/38/1 198/39/1 199/40/1
f 217/37/1 216/38/1 199/39/1 200/40/1
f 218/37/1 217/38/1 200/39/1 201/40/1
f 219/37/1 218/38/1 201/39/1 202/40/1
f 220/37/1 219/38/1 202/39/1 203/40/1
f 221/37/1 220/38/1 203/39/1 204/40/1
f 222/41/1 221/42/1 204/43/1 205/44/1
f 223/33/1 224/34/1 208/35/1 210/36/1
f 225/37/1 223/38/1 210/39/1 211/40/1
f 226/37/1 225/38/1 211/39/1 212/40/1
f 227/37/1 226/38/1 212/39/1 213/40/1
f 228/37/1 227/38/1 213/39/1 214/40/1
f 229/37/1 228/38/1 214/39/1 215/40/1
f 230/37/1 229/38/1 215/39/1 216/40/1
f 231/37/1 230/38/1 216/39/1 217/40/1
f 232/37/1 231/38/1 217/39/1 218/40/1
f 233/37/1 232/38/1 218/39/1 219/40/1
f 234/37/1 233/38/1 219/39/1 220/40/1
f 235/37/1 234/38/1 220/39/1 221/40/1
f 236/41/1 235/42/1 221/43/1 222/44/1
f 237/33/1 238/34/1 224/35/1 223/36/1
f 239/37/1 237/38/1 223/39/1 225/40/1
f 240/37/1 239/38/1 225/39/1 226/40/1
f 241/37/1 240/38/1 226/39/1 227/40/1
f 242/37/1 241/38/1 227/39/1 228/40/1
f 243/37/1 242/38/1 228/39/1 229/40/1
f 244/37/1 243/38/1 229/39/1 230/40/1
f 245/37/1 244/38/1 230/39/1 231/40/1
f 246/37/1 245/38/1 231/39/1 232/40/1
f 247/37/1 246/38/1 232/39/1 233/40/1
f 248/37/1 247/38/1 233/39/1 234/40/1
f 249/37/1 248/38/1 234/39/1 235/40/1
f 250/41/1 249/42/1 235/43/1 236/44/1
f 251/13/1 250/14/1 236/15/1 252/16/1
f 253/13/1 254/14/1 255/15/1 238/16/1
f 256/45/1 253/46/1 238/47/1 237/48/1
f 257/49/1 256/50/1 237/51/1 239/52/1
f 258/49/1 257/50/1 239/51/1 240/52/1
f 259/49/1 258/50/1 240/51/1 241/52/1
f 260/49/1 259/50/1 241/51/1 242/52/1
f 261/49/1 260/50/1 242/51/1 243/52/1
f 262/49/1 261/50/1 243/51/1 244/52/1
f 263/49/1 262/50/1 244/51/1 245/52/1
f 264/49/1 263/50/1 245/51/1 246/52/1
f 265/49/1 264/50/1 246/51/1 247/52/1
f 266/49/1 265/50/1 247/51/1 248/52/1
f 267/49/1 266/50/1 248/51/1 249/52/1
f 268/53/1 267/54/1 249/55/1 250/56/1
f 269/13/1 268/14/1 250/15/1 251/16/1
f 270/57/1 271/58/1 254/59/1 253/60/1
f 272/5/1 270/6/1 253/7/1 256/8/1
f 273/5/1 272/6/1 256/7/1 257/8/1
f 274/5/1 273/6/1 257/7/1 258/8/1
f 275/5/1 274/6/1 258/7/1 259/8/1
f 276/5/1 275/6/1 259/7/1 260/8/1
f 277/5/1 276/6/1 260/7/1 261/8/1
f 278/5/1 277/6/1 261/7/1 262/8/1
f 279/5/1 278/6/1 262/7/1 263/8/1
f 280/5/1 279/6/1 263/7/1 264/8/1
f 281/5/1 280/6/1 264/7/1 265/8/1
f 282/5/1 281/6/1 265/7/1 266/8/1
f 283/5/1 282/6/1 266/7/1 267/8/1
f 284/5/1 283/6/1 267/7/1 268/8/1
f 285/61/1 284/62/1 268/63/1 269/64/1

g mesh_0002
f 37/65/1 36/66/1 7/67/1 9/68/1
f 38/65/1 37/66/1 9/67/1 11/68/1
f 41/69/1 40/70/1 15/71/1 17/72/1
f 42/69/1 41/70/1 17/71/1 19/72/1
f 43/69/1 42/70/1 19/71/1 21/72/1
f 53/65/1 52/66/1 36/67/1 37/68/1
f 54/65/1 53/66/1 37/67/1 38/68/1
f 57/69/1 56/70/1 40/71/1 41/72/1
f 58/69/1 57/70/1 41/71/1 42/72/1
f 59/69/1 58/70/1 42/71/1 43/72/1
f 67/69/1 65/70/1 49/71/1 51/72/1
f 68/69/1 67/70/1 51/71/1 52/72/1
f 69/65/1 68/66/1 52/67/1 53/68/1
f 70/65/1 69/66/1 53/67/1 54/68/1
f 78/69/1 77/70/1 61/71/1 62/72/1
f 79/69/1 78/70/1 62/71/1 63/72/1
f 83/69/1 81/70/1 65/71/1 67/72/1
f 84/69/1 83/70/1 67/71/1 68/72/1
f 88/69/1 87/70/1 71/71/1 72/72/1
f 89/69/1 88/70/1 72/71/1 73/72/1
f 90/69/1 89/70/1 73/71/1 74/72/1
f 91/69/1 90/70/1 74/71/1 75/72/1
f 92/69/1 91/70/1 75/71/1 76/72/1
f 94/69/1 93/70/1 77/71/1 78/72/1
f 95/69/1 94/70/1 78/71/1 79/72/1
f 104/69/1 103/70/1 87/71/1 88/72/1
f 105/69/1 104/70/1 88/71/1 89/72/1
f 106/69/1 105/70/1 89/71/1 90/72/1
f 107/69/1 106/70/1 90/71/1 91/72/1
f 108/69/1 107/70/1 91/71/1 92/72/1
f 126/69/1 125/70/1 109/71/1 110/72/1
f 127/69/1 126/70/1 110/71/1 111/72/1
f 131/69/1 129/70/1 113/71/1 115/72/1
f 132/69/1 131/70/1 115/71/1 116/72/1
f 142/69/1 141/70/1 125/71/1 126/72/1
f 143/69/1 142/70/1 126/71/1 127/72/1
f 147/69/1 145/70/1 129/71/1 131/72/1
f 148/69/1 147/70/1 131/71/1 132/72/1
f 163/69/1 161/70/1 145/71/1 147/72/1
f 164/69/1 163/70/1 147/71/1 148/72/1
f 178/69/1 176/70/1 161/71/1 163/72/1
f 179/69/1 178/70/1 163/71/1 164/72/1
f 193/69/1 191/70/1 176/71/1 178/72/1
f 194/69/1 193/70/1 178/71/1 179/72/1
f 205/69/1 204/70/1 189/71/1 190/72/1
f 243/69/1 242/70/1 228/71/1 229/72/1
f 244/69/1 243/70/1 229/71/1 230/72/1
f 245/69/1 244/70/1 230/71/1 231/72/1
f 247/69/1 246/70/1 232/71/1 233/72/1
f 248/69/1 247/70/1 233/71/1 234/72/1
f 249/69/1 248/70/1 234/71/1 235/72/1
f 259/69/1 258/70/1 240/71/1 241/72/1
f 260/69/1 259/70/1 241/71/1 242/72/1
f 261/69/1 260/70/1 242/71/1 243/72/1
f 262/69/1 261/70/1 243/71/1 244/72/1
f 263/69/1 262/70/1 244/71/1 245/72/1
f 265/69/1 264/70/1 246/71/1 247/72/1
f 266/69/1 265/70/1 247/71/1 248/72/1
f 267/69/1 266/70/1 248/71/1 249/72/1

